<?xml version="1.0" encoding="UTF-8"?>
<svg width="16px" height="16px" viewBox="0 0 16 16" version="1.1" xmlns="http://www.w3.org/2000/svg" xmlns:xlink="http://www.w3.org/1999/xlink">
    <title>跳转_w</title>
    <g id="技术定稿" stroke="none" stroke-width="1" fill="none" fill-rule="evenodd">
        <g id="导航" transform="translate(-1632.000000, -1028.000000)">
            <g id="编组-7" transform="translate(1496.000000, 879.000000)">
                <g id="跳转_w" transform="translate(136.000000, 149.000000)">
                    <rect id="矩形" x="0" y="0" width="16" height="16"></rect>
                    <path d="M1.06666667,12.2224 L1.06666667,9.48586667 L1.06666667,9.48586667 C1.06666667,8.4832 1.42613333,7.62986667 2.14506667,6.9248 C2.864,6.21973333 3.72373333,5.8688 4.7264,5.8688 L12.7370667,5.8688 L10.1768972,3.33350449 C9.9559824,3.11473598 9.95424244,2.75830219 10.1730109,2.53738734 C10.174356,2.53602913 10.1757079,2.53467777 10.1770667,2.53333333 C10.401035,2.31172879 10.7616524,2.31170781 10.9856465,2.5332863 L14.2144749,5.72729395 C14.6071106,6.11569535 14.6105432,6.74885103 14.2221418,7.14148673 C14.2195419,7.14411493 14.2169275,7.14672868 14.2142987,7.14932788 L10.9860153,10.3412139 C10.7617581,10.5629427 10.4008559,10.562996 10.1765333,10.3413333 C9.95550027,10.1229212 9.95337557,9.7666805 10.1717877,9.54564744 C10.173289,9.54412807 10.174799,9.54261727 10.1763176,9.54111511 L12.7370667,7.008 L12.7370667,7.008 L4.7264,7.008 C4.03306667,7.008 3.44213333,7.25013333 2.9536,7.73226667 C2.46613333,8.2144 2.22186667,8.79893333 2.22186667,9.4848 L2.22186667,12.2224 C2.22186667,12.5413997 1.96326634,12.8 1.64426667,12.8 C1.325267,12.8 1.06666667,12.5413997 1.06666667,12.2224 Z" id="路径" fill="#FFFFFF" fill-rule="nonzero"></path>
                </g>
            </g>
        </g>
    </g>
</svg>