<?xml version="1.0" encoding="UTF-8"?>
<svg width="16px" height="16px" viewBox="0 0 16 16" version="1.1" xmlns="http://www.w3.org/2000/svg" xmlns:xlink="http://www.w3.org/1999/xlink">
    <title>收起</title>
    <g id="页面-1" stroke="none" stroke-width="1" fill="none" fill-rule="evenodd">
        <g id="导航" transform="translate(-1824.000000, -827.000000)">
            <g transform="translate(0.000000, 791.000000)" id="收起">
                <g transform="translate(1824.000000, 36.000000)">
                    <rect id="矩形" x="0" y="0" width="16" height="16"></rect>
                    <path d="M3.31707778,5.5 L12.6829222,5.5 C13.235207,5.5 13.6829222,5.94771525 13.6829222,6.5 C13.6829222,6.73871127 13.5975301,6.96954826 13.4421788,7.15079137 L8.7592566,12.6142006 C8.39983445,13.0335265 7.76853447,13.082088 7.34920863,12.7226659 C7.31032982,12.6893412 7.27406809,12.6530794 7.2407434,12.6142006 L2.55782118,7.15079137 C2.19839903,6.73146553 2.24696056,6.10016555 2.66628641,5.7407434 C2.84752952,5.58539216 3.07836651,5.5 3.31707778,5.5 Z" id="路径-2" fill="#5585FC" transform="translate(8.000000, 9.500000) scale(1, -1) translate(-8.000000, -9.500000) "></path>
                </g>
            </g>
        </g>
    </g>
</svg>