<?xml version="1.0" encoding="UTF-8"?>
<svg width="65px" height="30px" viewBox="0 0 65 30" version="1.1" xmlns="http://www.w3.org/2000/svg" xmlns:xlink="http://www.w3.org/1999/xlink">
    <title>底部导航logo</title>
    <g id="H5" stroke="none" stroke-width="1" fill="none" fill-rule="evenodd">
        <g id="h5-NetX底部导航" transform="translate(-24.000000, -856.000000)">
            <g id="编组-16备份-5" transform="translate(0.000000, 856.000000)">
                <g id="底部导航logo" transform="translate(24.000000, 0.000000)">
                    <rect id="矩形" x="0" y="0" width="64" height="30"></rect>
                    <g id="编组" transform="translate(0.000000, 3.000000)">
                        <g id="形状结合" fill="#FFFFFF">
                            <path d="M0.8375,5.71500485 L3.35,9.40685237 L3.35,20.2534664 L0.8375,20.2534664 L0.8375,5.71500485 Z M5.11952255,3.63461538 L14.7710959,15.7336161 C14.9370063,15.9421122 15.2525237,15.8155623 15.2525237,15.5406793 L15.2525237,3.63461538 L18.3108373,3.63461538 L18.3108373,17.3372731 C18.3108373,18.9025501 17.1369973,20.1721984 15.6898367,20.1721984 L15.4796329,20.1656119 C14.5026855,20.1043178 13.5868345,19.61773 12.9441635,18.8112682 L0.8375,3.63461538 L5.11952255,3.63461538 Z M57.6931693,20.1711611 L58.7260334,20.1711611 L60.9423277,20.1711611 L61.9751918,20.1711611 L55.8480155,12.4899968 C55.4998914,13.104075 54.8506351,14.1434439 53.8551728,15.3601901 L57.6931693,20.1711611 Z M61.9751918,3.63461538 L60.9423277,3.63461538 L58.7260334,3.63461538 L57.6931693,3.63461538 L53.8100989,8.50263752 C54.8218645,9.71627185 55.4835881,10.7307457 55.8403434,11.3261526 L61.9751918,3.63461538 Z M32.346281,6.94130215 C33.7934416,6.94130215 34.9672816,8.20991307 34.9672816,9.77622746 L34.9663226,14.7376061 L23.9471873,14.7365688 L23.9471873,12.3746497 L31.9089681,12.3746497 L31.9089681,11.0884047 C31.9089681,10.363336 31.365204,9.77622746 30.6958083,9.77622746 L24.2866802,9.77622746 C23.6172845,9.77622746 23.0735204,10.363336 23.0735204,11.0884047 L23.0735204,16.0228137 C23.0735204,16.7478824 23.6172845,17.3360283 24.2866802,17.3360283 L34.9672816,17.3360283 C34.9672816,18.9013054 33.7934416,20.1709536 32.346281,20.1709536 L22.6362075,20.1709536 C21.1890469,20.1709536 20.0152069,18.9013054 20.0152069,17.3360283 L20.0152069,9.77622746 C20.0152069,8.20991307 21.1890469,6.94130215 22.6362075,6.94130215 Z M41.5182486,3.6350303 L41.5182486,6.94088723 L45.2900728,6.94088723 L45.2900728,9.77581254 L41.5182486,9.77581254 L41.5182486,16.7651015 C41.5182486,17.080439 41.7541675,17.3366507 42.0466685,17.3366507 L45.2900728,17.3366507 C45.2900728,18.9019278 44.1162328,20.171576 42.6690722,20.171576 L41.0809357,20.171576 C39.6337751,20.171576 38.4599351,18.9019278 38.4599351,17.3366507 L38.4599351,9.77581254 L35.8389345,9.77581254 L35.8389345,9.50196685 C35.8389345,8.46778443 35.3987445,7.5466671 34.7111275,6.94088723 L38.4599351,6.94088723 L38.4599351,3.6350303 L41.5182486,3.6350303 Z"></path>
                        </g>
                        <path d="M38.4026685,0 C38.4026685,0 46.5850891,2.56829557 50.9893675,12.5427424 C48.0331507,20.3306112 41.4810111,23.625 41.4810111,23.625 C51.8219545,20.5121345 55.0679775,12.5437796 55.0679775,12.5437796 C55.0679775,12.5437796 50.7993943,3.49043401 38.4026685,0" id="Fill-4" fill="#2E6AFF"></path>
                    </g>
                </g>
            </g>
        </g>
    </g>
</svg>